#!OML:ASF F:\twosubjects\two\Thursday\Session 1\justin.ASF
:FULLY-SPECIFIED
:DEGREES
641
root 11.7529 17.8652 -16.6786 -0.0430079 -75.0495 7.24935
lowerback 2.21003 1.49565 -2.5648
upperback -0.493636 1.95533 2.48423
thorax -1.92045 1.01672 3.9213
lowerneck -21.8964 6.58743 -2.56274
upperneck 18.7831 10.016 -0.492003
head 9.41877 4.38983 1.65583
rclavicle -3.69739e-014 -3.97569e-015
rhumerus -36.8839 -32.7036 -59.3458
rradius 32.8909
rwrist -4.62088
rhand -15.389 13.2781
rfingers 7.12502
rthumb 10.7896 -16.4248
lclavicle -3.69739e-014 -3.97569e-015
lhumerus -34.1935 19.0212 74.9934
lradius 33.7289
lwrist -14.4088
lhand 1.15386 38.9327
lfingers 7.12502
lthumb 26.6951 67.0699
rfemur -192.063 -172.547 201.058
rtibia 29.3372
rfoot -22.8289 -9.32894
rtoes -0.658556
lfemur 175.456 174.219 161.795
ltibia 11.4081
lfoot -9.74349 0.96628
ltoes -13.2378
642
root 11.7377 17.8762 -16.6747 -0.0261568 -75.0548 7.31026
lowerback 2.08941 1.56683 -2.47457
upperback -0.536246 2.05425 2.41389
thorax -1.89926 1.06518 3.79563
lowerneck -21.6933 6.50607 -2.43292
upperneck 18.6157 9.88748 -0.66399
head 9.34368 4.32704 1.54753
rclavicle 1.37161e-014 -1.59028e-015
rhumerus -37.1962 -32.8323 -59.1564
rradius 32.7678
rwrist -4.67757
rhand -15.2635 13.1525
rfingers 7.12502
rthumb 10.9106 -16.544
lclavicle 1.37161e-014 -1.59028e-015
lhumerus -34.2255 19.0019 74.9085
lradius 33.3082
lwrist -14.5668
lhand 1.79075 38.854
lfingers 7.12502
lthumb 27.3045 66.8968
rfemur -192.071 -172.539 201.088
rtibia 29.2025
rfoot -22.5739 -9.54379
rtoes -1.98873
lfemur 175.419 174.368 161.744
ltibia 11.4635
lfoot -9.85585 1.17591
ltoes -13.8592
643
root 11.7206 17.8773 -16.6682 1.28508 -75.0709 6.04963
lowerback 1.93453 1.59921 -2.11879
upperback -0.594902 2.1091 2.52126
thorax -1.86823 1.08866 3.70707
lowerneck -21.5894 6.45085 -2.4499
upperneck 18.6069 9.83691 -0.76914
head 9.32884 4.2908 1.50357
rclavicle 3.03147e-014 7.95139e-015
rhumerus -37.4424 -32.8841 -58.9465
rradius 32.6713
rwrist -4.37232
rhand -14.9404 12.9107
rfingers 7.12502
rthumb 11.2222 -16.7691
lclavicle 3.03147e-014 7.95139e-015
lhumerus -34.3892 19.1841 74.8283
lradius 32.9998
lwrist -14.5587
lhand 2.39126 39.3395
lfingers 7.12502
lthumb 27.8787 67.2905
rfemur -192.051 -172.605 201.449
rtibia 29.0787
rfoot -22.4881 -9.64194
rtoes -2.54282
lfemur 175.483 174.55 162.043
ltibia 11.3856
lfoot -9.92773 1.52111
ltoes -15.2617
644
root 11.7029 17.8739 -16.6659 2.21296 -75.1154 5.16339
lowerback 1.73888 1.62048 -1.92929
upperback -0.595475 2.14377 2.61558
thorax -1.75834 1.10217 3.70193
lowerneck -21.8345 6.41078 -2.66222
upperneck 18.9352 9.80734 -0.486564
head 9.45938 4.2811 1.64646
rclavicle 6.32135e-014 -7.95139e-015
rhumerus -37.6469 -32.8472 -58.7927
rradius 32.667
rwrist -4.17053
rhand -14.6998 12.7945
rfingers 7.12502
rthumb 11.4543 -16.8726
lclavicle 6.32135e-014 -7.95139e-015
lhumerus -34.4306 19.2422 74.8021
lradius 32.6896
lwrist -14.5332
lhand 1.95223 38.9756
lfingers 7.12502
lthumb 27.4589 66.9941
rfemur -191.973 -172.762 201.702
rtibia 28.9614
rfoot -22.5598 -9.61424
rtoes -2.14848
lfemur 175.584 174.648 162.273
ltibia 11.2211
lfoot -9.88563 1.85287
ltoes -16.4635
645
root 11.6849 17.8809 -16.6602 1.64707 -75.2094 5.85182
lowerback 1.51741 1.63603 -2.04253
upperback -0.609217 2.1638 2.51586
thorax -1.65 1.11202 3.66799
lowerneck -22.0163 6.38569 -2.76844
upperneck 19.1732 9.73477 -0.108253
head 9.54747 4.2761 1.79523
rclavicle -2.29596e-014 2.38542e-015
rhumerus -37.8719 -32.9927 -58.7289
rradius 32.5625
rwrist -3.92826
rhand -14.8544 12.808
rfingers 7.12502
rthumb 11.3052 -16.8673
lclavicle -2.29596e-014 2.38542e-015
lhumerus -34.4892 19.3591 74.5976
lradius 32.3828
lwrist -14.6469
lhand 1.46851 38.2478
lfingers 7.12502
lthumb 26.9962 66.3388
rfemur -191.977 -172.691 201.544
rtibia 28.8245
rfoot -22.4254 -9.69644
rtoes -3.1295
lfemur 175.651 174.699 162.069
ltibia 11.0237
lfoot -9.85995 1.93132
ltoes -16.2183
646
root 11.6708 17.8901 -16.6463 -0.0366653 -75.2184 7.70173
lowerback 1.31244 1.69815 -2.30764
upperback -0.626972 2.24339 2.248
thorax -1.55886 1.15327 3.54353
lowerneck -22.0453 6.33851 -2.54724
upperneck 19.2472 9.5954 -0.0816019
head 9.59053 4.22839 1.75457
rclavicle 1.68967e-014 1.90833e-014
rhumerus -38.1859 -33.7104 -58.5032
rradius 32.2991
rwrist -3.51546
rhand -15.1079 13.1193
rfingers 7.12502
rthumb 11.0607 -16.5692
lclavicle 1.68967e-014 1.90833e-014
lhumerus -34.5185 19.5337 74.3554
lradius 32.1555
lwrist -14.9286
lhand 1.63191 38.2568
lfingers 7.12502
lthumb 27.1525 66.3234
rfemur -191.974 -172.491 201.008
rtibia 28.6637
rfoot -22.3005 -9.71324
rtoes -4.11391
lfemur 175.744 174.99 161.513
ltibia 10.7556
lfoot -9.75293 1.94632
ltoes -14.8062
647
root 11.656 17.8956 -16.6383 -0.452438 -75.1254 8.18105
lowerback 1.14635 1.74354 -2.30929
upperback -0.593119 2.30539 2.09362
thorax -1.42925 1.18154 3.38881
lowerneck -22.1899 6.3128 -2.26205
upperneck 19.4439 9.49698 -0.155376
head 9.70606 4.18611 1.68346
rclavicle -1.58034e-014 7.95139e-015
rhumerus -38.4078 -34.3143 -58.3268
rradius 32.1005
rwrist -3.29287
rhand -15.128 13.5226
rfingers 7.12502
rthumb 11.0413 -16.167
lclavicle -1.58034e-014 7.95139e-015
lhumerus -34.3918 19.4423 74.2718
lradius 31.8954
lwrist -15.1505
lhand 1.84134 38.6015
lfingers 7.12502
lthumb 27.3528 66.6367
rfemur -191.835 -172.564 200.857
rtibia 28.4326
rfoot -22.277 -9.87742
rtoes -4.33111
lfemur 175.839 175.429 161.36
ltibia 10.567
lfoot -9.61768 2.15955
ltoes -14.1059
